<svg fill="none" viewBox="0 0 25 24" xmlns="http://www.w3.org/2000/svg"><g fill="#fff" opacity=".3"><path clip-rule="evenodd" d="m15 1.25634c-.0619-.00421-.1242-.00634-.1867-.00634h-6.0633c-2.62335 0-4.75 2.12665-4.75 4.75v12c0 2.6234 2.12665 4.75 4.75 4.75h8c2.6234 0 4.75-2.1266 4.75-4.75v-9.25h-3.75c-1.5188 0-2.75-1.23122-2.75-2.75zm-7 10.74366c0-.4142.33579-.75.75-.75h8c.4142 0 .75.3358.75.75s-.3358.75-.75.75h-8c-.41421 0-.75-.3358-.75-.75zm.75 4.25c-.41421 0-.75.3358-.75.75s.33579.75.75.75h4c.4142 0 .75-.3358.75-.75s-.3358-.75-.75-.75z" fill-rule="evenodd"/><path d="m21.0715 7.25c-.0631-.09941-.1328-.1951-.2089-.28641l-3.9367-4.7241c-.1279-.15348-.2709-.29112-.4259-.41147v4.17198c0 .69036.5596 1.25 1.25 1.25z"/></g><g stroke="#fff" stroke-linecap="round" stroke-width="1.5"><path d="m8.75 12h8"/><path d="m8.75 17h4"/></g></svg>