<svg viewBox="0 0 25 24" fill="none" xmlns="http://www.w3.org/2000/svg">
<g clip-path="url(#clip0_4163_74)">
<path d="M22.6262 5.92238C22.6264 5.92383 22.6236 5.93256 22.6181 5.94873C22.6152 5.9573 22.6136 5.96635 22.6133 5.97573C22.6105 6.05414 22.6031 6.13191 22.5913 6.20919C22.5834 6.2606 22.5785 6.29875 22.5767 6.32349C22.5735 6.36714 22.5678 6.40513 22.5599 6.43747C22.5463 6.49325 22.5033 6.52655 22.4726 6.55872C22.4569 6.57505 22.4409 6.58928 22.4244 6.60173C22.3939 6.62485 22.3628 6.6491 22.3313 6.67481C22.2985 6.70148 22.267 6.72541 22.2369 6.74659C22.1391 6.81465 22.0359 6.89016 21.9274 6.97277C21.8668 7.01885 21.7787 7.08093 21.6629 7.1587C21.4646 7.29192 21.3409 7.37502 21.2919 7.408C21.2736 7.42029 21.1996 7.46507 21.0701 7.54219C21.0348 7.56321 21.0004 7.58568 20.9668 7.60961C20.931 7.63515 20.8961 7.65714 20.8622 7.67573C20.818 7.69982 20.7781 7.72342 20.7422 7.74671C20.7045 7.77112 20.6779 7.78729 20.6622 7.79488C20.6298 7.81057 20.6027 7.82544 20.5805 7.83951C20.5403 7.86489 20.4923 7.89286 20.4362 7.92309C20.3872 7.94944 20.3385 7.97644 20.2905 8.00393C19.9557 8.19584 19.6354 8.36705 19.33 8.51757C19.2797 8.5423 19.249 8.57334 19.238 8.61053C19.2365 8.61522 19.2192 8.65677 19.1863 8.73518C19.1643 8.7874 19.1457 8.82847 19.1306 8.85805C19.0074 9.10105 18.8497 9.32028 18.6573 9.51607C18.5827 9.59189 18.5021 9.66335 18.4152 9.73012C18.1503 9.93432 17.8827 10.0958 17.6125 10.2145C17.4433 10.2889 17.2429 10.3623 17.0113 10.4345C16.7977 10.5011 16.549 10.5637 16.2653 10.6221C16.2401 10.6272 16.2092 10.6405 16.1783 10.6462C16.1031 10.6601 16.0192 10.68 15.9266 10.706C15.886 10.7175 15.8299 10.7215 15.7884 10.7341C15.731 10.7514 15.6642 10.7697 15.5877 10.7892C15.5478 10.7994 15.4812 10.8183 15.3881 10.8462C15.2259 10.8945 15.1101 10.9246 15.0408 10.9364C15.0196 10.9399 15.0013 10.9272 14.9863 10.8982C14.8752 10.684 14.7726 10.4987 14.6783 10.3421C14.4285 9.92736 14.1715 9.57572 13.9071 9.2873C13.6741 9.03298 13.4379 8.80858 13.1982 8.61376C12.9985 8.4516 12.8205 8.31758 12.6638 8.21184C12.4766 8.08525 12.3112 7.98178 12.1675 7.90143C12.0936 7.86004 11.9845 7.80135 11.8401 7.72553C11.7269 7.66619 11.6301 7.61866 11.5494 7.58293C11.1831 7.42077 10.8067 7.28529 10.4205 7.17648C10.3948 7.16921 10.3839 7.15336 10.388 7.12879C10.3897 7.11795 10.3907 7.11213 10.3909 7.111C10.4061 6.91166 10.4098 6.76615 10.4022 6.67432C10.398 6.62372 10.3954 6.58314 10.3943 6.5529C10.3925 6.49583 10.3899 6.45558 10.3868 6.43213C10.3692 6.2994 10.3511 6.19286 10.3323 6.11283C10.3243 6.07871 10.3047 6.00515 10.2735 5.89214C10.2478 5.79918 10.2245 5.72724 10.2035 5.67631C10.0743 5.36347 9.91313 5.10172 9.71993 4.89138C9.56132 4.71855 9.40353 4.57531 9.24654 4.46133C9.13935 4.38356 8.99449 4.29141 8.81164 4.1847C8.757 4.15269 8.7051 4.12472 8.65579 4.1008C8.62006 4.08333 8.58594 4.06571 8.55377 4.04809C8.50058 4.01883 8.46663 4.0012 8.45192 3.99506C8.40907 3.97711 8.35669 3.95254 8.29509 3.92101C8.25807 3.9021 8.20536 3.87801 8.1373 3.84907C7.70337 3.6646 7.41235 3.54431 7.26426 3.48837C7.22594 3.47382 7.2004 3.46396 7.18779 3.45879C7.08108 3.41481 6.98618 3.37714 6.90292 3.34562C6.86913 3.33284 6.81578 3.31118 6.74286 3.28046C6.68062 3.25427 6.6271 3.23358 6.58248 3.21838C6.56276 3.21159 6.54368 3.20383 6.52525 3.1951C6.51183 3.18879 6.49259 3.18152 6.46753 3.17343C6.43859 3.16406 6.4103 3.15339 6.38281 3.14126C6.34385 3.12396 6.3162 3.11232 6.29971 3.10618C6.20837 3.07174 6.14968 3.04878 6.12381 3.0373C5.97976 2.97312 5.83474 2.9112 5.68891 2.85122C5.64962 2.83505 5.62101 2.82163 5.60274 2.81096C5.58398 2.79997 5.56458 2.79059 5.5447 2.78299C5.52546 2.77571 5.50557 2.76634 5.4852 2.75486C5.40679 2.71072 5.29685 2.6467 5.15555 2.56279C5.14536 2.55681 5.13469 2.55341 5.12353 2.5526C5.09767 2.55083 5.08392 2.58235 5.10268 2.60014C5.17947 2.67241 5.25999 2.75146 5.34406 2.83747C5.35327 2.84685 5.37106 2.86237 5.39741 2.88387C5.41633 2.89923 5.43346 2.91589 5.44915 2.93367C5.49361 2.98411 5.5185 3.01208 5.52384 3.01742C5.55941 3.0525 5.59853 3.08888 5.62796 3.12881C5.64299 3.14918 5.66304 3.17101 5.68794 3.19413C5.69618 3.20173 5.71591 3.22323 5.74711 3.25847C5.8522 3.37666 5.9665 3.51667 6.09002 3.6785C6.14143 3.74592 6.20335 3.83403 6.27578 3.94268C6.42501 4.16611 6.51264 4.29739 6.53899 4.33668C6.58685 4.40814 6.62856 4.47378 6.66396 4.5336C6.70859 4.60877 6.7351 4.65372 6.74351 4.66811C6.76824 4.71063 6.79266 4.75606 6.81642 4.80472C6.90615 4.98774 6.95562 5.08846 6.96484 5.10705C7.01771 5.2136 7.06184 5.31658 7.09741 5.41601C7.1291 5.5051 7.15852 5.57656 7.18569 5.63039C7.25327 5.76474 7.30209 5.85916 7.33216 5.91397C7.43256 6.09682 7.5564 6.26998 7.70369 6.43327C7.84548 6.59057 7.99729 6.73107 8.15913 6.85491C8.17739 6.86898 8.17513 6.87658 8.15201 6.87771C7.96431 6.88644 7.80053 6.89646 7.66052 6.90762C7.63692 6.9094 7.61299 6.9018 7.58858 6.8845C7.55511 6.86089 7.45148 6.78539 7.27768 6.65815C7.23839 6.62938 7.19361 6.57214 7.14349 6.48662C7.11229 6.4331 7.08577 6.38282 7.06411 6.33561C7.0384 6.27951 7.01706 6.22648 7.00025 6.1762C6.89403 5.85884 6.79136 5.57623 6.69242 5.32839C6.63842 5.1929 6.57601 5.05112 6.52751 4.93455C6.51636 4.90787 6.5094 4.88394 6.50649 4.86244C6.50181 4.82849 6.49792 4.79761 6.47998 4.76592C6.44878 4.71111 6.41935 4.661 6.39171 4.61589C6.36309 4.56916 6.33512 4.51905 6.30764 4.46537C6.26156 4.37564 6.20982 4.28478 6.15243 4.19246C5.94532 3.85958 5.71009 3.52863 5.44656 3.19946C5.39305 3.13269 5.34018 3.07562 5.28828 3.02793C5.20405 2.95065 5.1604 2.91039 5.15716 2.90732C5.07649 2.82777 5.00212 2.75324 4.93421 2.68388C4.86421 2.61226 4.81571 2.52932 4.78903 2.43507C4.75524 2.31527 4.84044 2.2118 4.95491 2.18253C5.06339 2.15489 5.17349 2.15165 5.28521 2.17283C5.36831 2.18884 5.46321 2.21632 5.56992 2.25561C5.78381 2.33418 5.9956 2.41292 6.20513 2.49165C6.31071 2.53126 6.65232 2.64233 7.23031 2.82454C7.31276 2.85057 7.41639 2.87999 7.54137 2.91265C7.6471 2.9403 7.77628 2.97651 7.92874 3.02146C8.03852 3.05396 8.14231 3.08241 8.24045 3.10682C8.47746 3.166 8.71545 3.22048 8.9544 3.27011C8.96717 3.2727 9.0527 3.29129 9.21081 3.32589C9.27257 3.33931 9.35875 3.35564 9.46933 3.37472C9.60627 3.39832 9.74321 3.42209 9.88014 3.44585C9.94142 3.45652 9.98976 3.46348 10.025 3.46687C10.0806 3.47204 10.149 3.47851 10.2185 3.49031C10.2575 3.49694 10.3063 3.5047 10.365 3.51376C10.4114 3.52087 10.4606 3.52588 10.5125 3.52895C10.7173 3.54108 10.8358 3.54755 10.8678 3.54868C10.8895 3.54933 10.9152 3.53461 10.932 3.51764C11.0878 3.36033 11.2597 3.21757 11.4474 3.08936C11.4867 3.06236 11.5522 3.02 11.6438 2.96213C11.7203 2.91395 11.7811 2.8787 11.8264 2.85655C11.9117 2.81468 11.9866 2.76844 12.0765 2.72673C12.3308 2.60854 12.5832 2.51073 12.8339 2.43345C13.2328 2.31042 13.6413 2.2278 14.0597 2.18544C14.2471 2.16653 14.4563 2.15327 14.687 2.14583C14.773 2.14308 14.8502 2.14389 14.9184 2.14826C14.9629 2.15117 15.0143 2.15311 15.0726 2.15392C15.1135 2.15456 15.1651 2.15764 15.2272 2.16297C15.3454 2.17316 15.4162 2.17898 15.4396 2.18075C15.507 2.18609 15.5777 2.19401 15.6513 2.20484C15.9052 2.24219 16.1276 2.28423 16.3182 2.33095C16.8591 2.46352 17.3647 2.66125 17.8347 2.92429C18.1144 3.08096 18.3816 3.26623 18.6364 3.48045C18.6584 3.49904 18.6941 3.50519 18.7434 3.49888C18.7767 3.49468 18.8379 3.48676 18.9268 3.47512C18.9745 3.46881 19.0353 3.45911 19.1095 3.44569C19.1581 3.4368 19.2645 3.41821 19.4284 3.38991C19.8305 3.32039 20.2625 3.23778 20.7244 3.14207C21.1283 3.05848 21.5923 2.94515 22.1163 2.80239C22.6721 2.6509 23.1988 2.47969 23.6965 2.28891C23.7746 2.259 23.8318 2.23734 23.8683 2.22392C23.9332 2.20016 23.9914 2.18189 24.0429 2.16895C24.1547 2.14066 24.3144 2.0962 24.5218 2.03557C24.5858 2.01682 24.6337 2.00582 24.6654 2.00275C24.7398 1.99548 24.8206 2.00194 24.8921 2.0304C24.9608 2.05756 24.9907 2.13015 24.9983 2.19983C25.0023 2.23702 24.997 2.27857 24.9826 2.32432C24.9574 2.40467 24.9126 2.48276 24.8482 2.55826C24.8122 2.60078 24.769 2.64767 24.7189 2.69892C24.7184 2.6994 24.6374 2.77474 24.4761 2.92494C24.4479 2.95113 24.4046 2.99883 24.3462 3.06786C24.3062 3.11523 24.2628 3.16244 24.2161 3.20932C23.8835 3.54318 23.5967 3.89272 23.3555 4.25762C23.1877 4.51145 23.0435 4.78759 22.9227 5.08587C22.8986 5.14537 22.8676 5.21344 22.8296 5.29007C22.7856 5.37883 22.7504 5.46678 22.7238 5.55424C22.6975 5.64106 22.6668 5.74858 22.6314 5.87678C22.6264 5.89489 22.6246 5.91009 22.6262 5.92238ZM20.1091 5.63363C20.149 5.65739 20.1773 5.68391 20.1941 5.71317C20.2784 5.85981 20.3414 6.02003 20.3836 6.19367C20.42 6.34386 20.4488 6.51022 20.4696 6.69275C20.475 6.73818 20.4772 6.79137 20.4764 6.85216C20.4758 6.90309 20.4795 6.95628 20.4874 7.01157C20.4898 7.02774 20.4895 7.04617 20.4868 7.0667C20.4761 7.14544 20.47 7.21059 20.4683 7.26185C20.4672 7.29531 20.4635 7.33007 20.457 7.36612C20.4506 7.40282 20.4447 7.43742 20.4397 7.46976C20.4381 7.48043 20.4384 7.48851 20.4409 7.49417C20.4452 7.50484 20.4549 7.50969 20.4698 7.50888C20.4746 7.50856 20.4795 7.5071 20.4839 7.50484C20.6783 7.39814 20.8576 7.28674 21.0221 7.1705C21.1656 7.06913 21.2746 6.99072 21.3491 6.93543C21.5393 6.79412 21.7126 6.63617 21.8692 6.46172C21.8709 6.45994 21.9022 6.42421 21.9635 6.35421C21.9873 6.32705 22.0162 6.28889 22.0502 6.23974C22.1255 6.13045 22.1913 6.02601 22.2474 5.92658C22.3022 5.82974 22.3497 5.72918 22.39 5.62506C22.4477 5.47551 22.4766 5.40049 22.4768 5.40017C22.5845 5.15022 22.6682 4.96801 22.7282 4.85355C22.8343 4.65097 22.9343 4.47378 23.0283 4.32229C23.1275 4.16239 23.2325 4.00735 23.3432 3.85731C23.4874 3.66169 23.6362 3.47091 23.7894 3.28515C23.8323 3.23325 23.9052 3.15581 24.008 3.05282C24.0219 3.03892 24.0305 3.01823 24.0452 3.00335C24.1246 2.92316 24.2481 2.8011 24.4159 2.63716C24.4226 2.63053 24.4251 2.62083 24.4226 2.61194C24.4211 2.60693 24.415 2.60741 24.4043 2.61323C24.3534 2.64136 24.3003 2.67047 24.2452 2.70054C24.2439 2.70134 24.192 2.73222 24.0897 2.79318C24.0407 2.82244 23.9899 2.84734 23.9375 2.86787C23.8636 2.89697 23.8119 2.91944 23.7826 2.93545C23.7578 2.94887 23.6876 2.98363 23.5722 3.03957C23.5474 3.05153 23.5211 3.06252 23.4928 3.07271C23.4633 3.08338 23.4363 3.0934 23.4116 3.10262C23.3995 3.10715 23.36 3.12445 23.2929 3.15436C23.2608 3.16874 23.2294 3.18087 23.1985 3.19041C23.1586 3.20286 23.1271 3.21401 23.1036 3.22404C22.9843 3.27529 22.8865 3.31409 22.81 3.34077C22.7481 3.36227 22.6998 3.3807 22.6647 3.39573C22.6047 3.4216 22.5565 3.44036 22.52 3.452C22.4238 3.48255 22.3273 3.51893 22.2304 3.56097C22.194 3.57681 22.1577 3.59136 22.1214 3.60462C22.0988 3.61286 22.0626 3.62758 22.0128 3.64859C21.9735 3.66525 21.9187 3.68626 21.8487 3.71148C21.7344 3.75271 21.638 3.792 21.56 3.82951C21.4875 3.86427 21.4133 3.88561 21.3391 3.92279C21.2709 3.95691 21.217 3.98261 21.1774 3.99991C20.9868 4.08317 20.8331 4.15964 20.716 4.22916C20.5988 4.29868 20.5217 4.34686 20.4847 4.37386C20.387 4.44484 20.267 4.53909 20.1246 4.65679C20.0768 4.6964 20.009 4.75654 19.9216 4.83738C19.8954 4.86147 19.8493 4.90981 19.7833 4.98224C19.691 5.08361 19.6305 5.15459 19.6018 5.195C19.552 5.26469 19.5174 5.34213 19.4744 5.41019C19.4425 5.46063 19.4141 5.51625 19.3887 5.57688C19.341 5.69118 19.2968 5.81567 19.2561 5.95067C19.2257 6.05139 19.2073 6.13094 19.201 6.18898C19.1971 6.22422 19.1918 6.26124 19.185 6.30005C19.174 6.36229 19.1682 6.39931 19.1673 6.41128C19.1643 6.45736 19.1612 6.49018 19.1583 6.5099C19.1544 6.53625 19.1521 6.56923 19.1517 6.60852C19.1509 6.67545 19.1507 6.75112 19.1512 6.83551C19.1515 6.90616 19.1559 6.9815 19.1641 7.06153C19.1688 7.10696 19.1741 7.16856 19.1801 7.24649C19.1848 7.30808 19.1926 7.3692 19.2032 7.43015C19.2226 7.54009 19.2354 7.62157 19.2414 7.6746C19.2492 7.74234 19.2587 7.80976 19.2702 7.87653C19.2776 7.9205 19.2854 7.98792 19.2933 8.07878C19.2952 8.09996 19.3167 8.11371 19.3366 8.10627C19.5039 8.04483 19.6464 7.95138 19.7642 7.82609C19.7925 7.79618 19.8173 7.76659 19.8386 7.73749C19.8834 7.67686 19.9064 7.64582 19.9072 7.64453C19.9507 7.58584 19.9979 7.50339 20.0486 7.39749C20.0913 7.30841 20.1199 7.21641 20.1345 7.12119C20.1371 7.10389 20.1419 7.08417 20.1489 7.06202C20.1618 7.02014 20.1679 6.96469 20.1726 6.93656C20.1911 6.82613 20.2004 6.76276 20.2009 6.74643C20.205 6.60707 20.1924 6.46285 20.1631 6.31395C20.1291 6.14112 20.0798 5.96199 20.015 5.77655C20.0043 5.74583 19.9985 5.72449 19.9975 5.71269C19.9953 5.68294 20.0076 5.66192 20.0342 5.64963C20.0405 5.64672 20.0606 5.64074 20.0941 5.63152C20.0994 5.63007 20.1044 5.63088 20.1091 5.63363ZM10.9689 6.08583C10.9291 6.15519 10.9271 6.22956 10.9415 6.3112C10.9606 6.4192 10.9828 6.51055 11.0081 6.5854C11.1396 6.97229 11.3651 7.28965 11.6847 7.53718C11.9635 7.75285 12.2797 7.87766 12.6333 7.91145C12.7353 7.92115 12.8427 7.91953 12.9552 7.90676C13.166 7.88267 13.3644 7.81833 13.5503 7.71372C13.5956 7.68818 13.629 7.65649 13.6507 7.61866C13.6724 7.58067 13.6827 7.53572 13.6817 7.48382C13.6775 7.27041 13.6323 7.06687 13.5459 6.87302C13.4999 6.76955 13.4468 6.67642 13.3865 6.59332C13.178 6.30587 12.9099 6.09666 12.5827 5.96603C12.2071 5.81632 11.8193 5.78301 11.4191 5.86628C11.3418 5.88228 11.2518 5.9096 11.1491 5.94792C11.0715 5.97702 11.0085 6.01647 10.9689 6.08583ZM15.4256 7.61316C15.4655 7.68349 15.5581 7.72633 15.6391 7.76287C15.8884 7.8754 16.1473 7.92212 16.4155 7.90304C16.61 7.88914 16.7932 7.84613 16.9652 7.77387C17.3614 7.60734 17.6706 7.3388 17.8925 6.96825C18.0199 6.75564 18.1032 6.52704 18.1422 6.28242C18.1538 6.20919 18.1431 6.14355 18.1102 6.08551C18.077 6.02746 18.0261 5.98478 17.9571 5.9573C17.727 5.86595 17.4879 5.82068 17.24 5.82165C16.808 5.82311 16.4194 5.9518 16.0737 6.20741C15.9238 6.31848 15.7932 6.45396 15.682 6.61402C15.5285 6.83486 15.4366 7.08125 15.406 7.35303C15.396 7.44146 15.3855 7.54283 15.4256 7.61316Z" fill="#D0F9EF" fill-opacity="0.153"/>
<path d="M9.35011 6.95301L9.10873 6.92229C9.08868 6.91971 9.07349 6.90322 9.07268 6.88317C9.07058 6.83224 9.07122 6.77129 9.07462 6.70064C9.07785 6.63548 9.08399 6.57518 9.09289 6.51973C9.11827 6.3642 9.14802 6.23049 9.18229 6.11845C9.19361 6.08159 9.21948 6.00609 9.25973 5.89211C9.27315 5.85411 9.28787 5.81774 9.30419 5.78282C9.34526 5.69503 9.36143 5.64248 9.41446 5.59527C9.43062 5.58089 9.44922 5.57587 9.47023 5.58056C9.52375 5.59236 9.57306 5.61807 9.55398 5.68193C9.53571 5.74385 9.51777 5.79947 9.50031 5.84878C9.47395 5.92331 9.45585 5.97893 9.44566 6.01546C9.40136 6.17471 9.37194 6.31246 9.35755 6.4287C9.34429 6.53476 9.34461 6.68205 9.35836 6.8704C9.35852 6.87153 9.36062 6.88204 9.36466 6.90192C9.36806 6.91825 9.3666 6.93329 9.36062 6.94719C9.35884 6.95123 9.35448 6.95366 9.35011 6.95301Z" fill="#D0F9EF" fill-opacity="0.153"/>
<path d="M13.6504 7.61859C13.6287 7.65642 13.5952 7.68811 13.55 7.71365C13.364 7.81826 13.1657 7.8826 12.9549 7.90669C12.8423 7.91947 12.735 7.92108 12.633 7.91138C12.2794 7.87759 11.9631 7.75278 11.6844 7.53711C11.3648 7.28958 11.1393 6.97222 11.0078 6.58533C10.9824 6.51048 10.9603 6.41913 10.9412 6.31113C10.9268 6.22949 10.9288 6.15512 10.9685 6.08576C11.0081 6.0164 11.0712 5.97695 11.1488 5.94785C11.2515 5.90953 11.3415 5.88221 11.4188 5.86621C11.8189 5.78294 12.2068 5.81625 12.5824 5.96596C12.9096 6.09659 13.1776 6.3058 13.3862 6.59325C13.4465 6.67635 13.4995 6.76948 13.5456 6.87295C13.6319 7.0668 13.6772 7.27034 13.6814 7.48375C13.6824 7.53565 13.672 7.5806 13.6504 7.61859Z" fill="white" fill-opacity="0.51"/>
<path d="M18.1101 6.08546C18.143 6.1435 18.1537 6.20914 18.1421 6.28238C18.1031 6.52699 18.0198 6.7556 17.8924 6.9682C17.6705 7.33876 17.3613 7.6073 16.9651 7.77382C16.7931 7.84609 16.6099 7.8891 16.4154 7.903C16.1472 7.92208 15.8883 7.87535 15.639 7.76283C15.558 7.72629 15.4654 7.68345 15.4255 7.61312C15.3854 7.54279 15.3959 7.44142 15.4059 7.35299C15.4365 7.08121 15.5284 6.83482 15.6819 6.61397C15.7931 6.45392 15.9237 6.31843 16.0736 6.20736C16.4193 5.95176 16.8079 5.82306 17.2399 5.82161C17.4878 5.82064 17.7269 5.86591 17.957 5.95725C18.026 5.98474 18.0769 6.02742 18.1101 6.08546Z" fill="white" fill-opacity="0.51"/>
<path d="M2.07778 11.4341C2.11771 11.4257 2.16039 11.4097 2.20049 11.4089C2.3987 11.4044 2.52691 11.5554 2.52739 11.7471C2.52917 12.5489 2.52933 13.294 2.5282 13.9826C2.5282 13.9899 2.52303 13.996 2.51591 13.9973C2.36442 14.025 2.24867 14.1066 2.16848 14.2423C2.09265 14.3705 2.04851 14.5111 2.0359 14.6642C2.03542 14.6709 2.02992 14.6759 2.02329 14.6759C1.6419 14.676 1.41798 14.6762 1.35138 14.676C1.17952 14.6755 1.06715 14.5954 1.01412 14.4355C1.00944 14.4211 1.00539 14.3904 1.00232 14.3433C1.00054 14.3176 0.999735 14.2869 0.999735 14.2508C0.999735 13.4269 0.999734 12.603 0.999573 11.7792C0.999573 11.5745 1.1294 11.412 1.34572 11.4298C1.37789 11.4324 1.40974 11.4343 1.4411 11.4358C1.44741 11.4361 1.45064 11.433 1.45064 11.4267V7.52891C1.45064 7.52341 1.44595 7.51905 1.44046 7.51953C1.28428 7.53133 1.17127 7.45001 1.10789 7.30742C1.05309 7.1839 1.04339 7.0531 1.07895 6.9152C1.11016 6.79426 1.19083 6.67883 1.31516 6.64585C1.34281 6.63841 1.38791 6.63469 1.45048 6.63485C2.70248 6.6355 3.42113 6.63534 3.6064 6.63453C3.75935 6.63372 3.85845 6.70405 3.92393 6.84082C3.97955 6.95674 3.99248 7.08479 3.9629 7.22496C3.93687 7.34751 3.85813 7.47168 3.73235 7.50773C3.70357 7.51598 3.66234 7.52018 3.60851 7.52034C3.0551 7.52212 2.54469 7.52228 2.07729 7.52083C2.07228 7.52083 2.06824 7.52487 2.06824 7.52988V11.4265C2.06824 11.4316 2.07293 11.4353 2.07778 11.4341Z" fill="white"/>
<path d="M8.74553 7.41703C8.74634 7.41703 8.74715 7.41703 8.7478 7.41703C9.54695 7.41169 10.3204 7.54799 11.0681 7.8259C12.2904 8.28005 13.3539 9.11493 14.0725 10.2062C14.2657 10.4998 14.4386 10.8098 14.5907 11.1362C14.598 11.1519 14.6023 11.1714 14.6035 11.1949C14.6036 11.2002 14.602 11.2051 14.5985 11.2091C14.5685 11.2427 14.509 11.2437 14.463 11.2437C12.557 11.2434 10.6512 11.2432 8.74521 11.243C6.83923 11.2429 4.93326 11.2427 3.02729 11.2426C2.98121 11.2426 2.92171 11.2416 2.8918 11.208C2.88825 11.2039 2.88663 11.1991 2.88679 11.1937C2.88808 11.1703 2.89229 11.1507 2.89956 11.135C3.05186 10.8086 3.22469 10.4987 3.41805 10.2053C4.13685 9.11396 5.20051 8.2794 6.42276 7.82542C7.1705 7.54766 7.94411 7.41153 8.74327 7.41703C8.74391 7.41703 8.74472 7.41703 8.74553 7.41703Z" fill="white" fill-opacity="0.396"/>
<path d="M19.5924 13.0556C19.593 13.0565 19.5937 13.0577 19.5945 13.0589C19.5953 13.0601 19.5956 13.0612 19.5958 13.0625C19.6409 13.5281 19.6587 13.9528 19.6495 14.3367C19.6461 14.4763 19.6331 14.6923 19.611 14.9848C19.603 15.0871 19.5922 15.1943 19.5783 15.3064C19.5491 15.5416 19.512 15.7783 19.4674 16.0161C19.4609 16.0504 19.4488 16.0625 19.4158 16.0761C19.1289 16.194 18.8471 16.3088 18.5704 16.4205C18.0432 16.6334 17.5006 16.8159 16.9427 16.9681C16.7999 17.007 16.6952 17.0337 16.6281 17.0483C16.5901 17.0567 16.5548 17.0656 16.5224 17.0749C16.4709 17.09 16.4359 17.0987 16.4169 17.1011C16.3608 17.1087 16.2968 17.1213 16.2249 17.1388C16.1626 17.1542 16.0934 17.1666 16.0174 17.1761C16.0047 17.1779 15.9922 17.1706 15.9874 17.1587C15.9791 17.1385 15.9736 17.1183 15.9707 17.0982C15.9027 16.6394 15.8605 16.3584 15.8443 16.2551C15.8428 16.2457 15.8289 16.1466 15.8029 15.9579C15.796 15.9075 15.7851 15.836 15.7704 15.7437C15.7555 15.6504 15.7449 15.5785 15.7384 15.528C15.7285 15.4512 15.7166 15.3701 15.7025 15.2846C15.6852 15.1791 15.6734 15.0977 15.6673 15.0403C15.6595 14.9677 15.6471 14.9121 15.6351 14.8317C15.4749 13.7606 15.3813 13.127 15.3543 12.9306C15.347 12.8777 15.3365 12.8077 15.3227 12.7206C15.2794 12.4456 15.2267 12.0908 15.1648 11.6566C15.1611 11.6306 15.1712 11.6125 15.1955 11.6023C15.2421 11.5824 15.2822 11.5665 15.3159 11.5546C15.5248 11.4807 15.7544 11.4107 16.0045 11.3446C16.0561 11.3308 16.2603 11.2765 16.6171 11.1816C16.9286 11.0987 17.215 11.0131 17.4761 10.9252C17.7575 10.8303 18.0201 10.7208 18.2637 10.5968C18.3768 10.5393 18.5033 10.4639 18.6434 10.3708C18.6692 10.3535 18.7007 10.3302 18.7378 10.3006C18.7761 10.2701 18.8075 10.2471 18.832 10.2318C18.8497 10.2208 18.8634 10.2245 18.8733 10.2427C18.8873 10.2689 18.9049 10.3094 18.9264 10.3638C19.2086 11.0812 19.4095 11.8149 19.5293 12.5649C19.5544 12.721 19.5749 12.883 19.5911 13.0509C19.5912 13.053 19.5916 13.0544 19.5924 13.0556Z" fill="#D0F9EF" fill-opacity="0.153"/>
<path d="M9.56661 14.051C9.56192 14.0534 9.55885 14.0583 9.55885 14.0635V20.9674C9.55885 20.9724 9.55642 20.9749 9.55141 20.9749H8.00452C7.98819 20.9749 7.97994 20.9666 7.97994 20.9503V14.1023C7.97994 14.0898 7.97299 14.0783 7.96183 14.0727C7.46226 13.8156 6.93601 13.6226 6.38325 13.4937C6.01609 13.4082 5.62969 13.3456 5.22388 13.3064C4.98412 13.2832 4.75212 13.2645 4.52804 13.2503C4.42489 13.2436 4.31738 13.2397 4.20534 13.2386C4.05918 13.2372 3.63107 13.2368 2.921 13.2373C2.89335 13.2375 2.86749 13.2362 2.84356 13.2336C2.83046 13.2321 2.82028 13.2213 2.81995 13.2081C2.81171 12.9111 2.81106 12.5681 2.81834 12.179C2.8185 12.1735 2.82125 12.1703 2.82658 12.1695C2.85665 12.1651 2.88624 12.1628 2.9155 12.1628C3.22543 12.1623 7.01006 12.1619 14.2691 12.1614C14.4079 12.1614 14.5463 12.1625 14.6842 12.1648C14.6886 12.1649 14.6909 12.1672 14.6909 12.1716V13.2262C14.6909 13.2318 14.6863 13.2365 14.6807 13.2365C14.0151 13.2373 13.5855 13.2376 13.392 13.2375C13.2557 13.2373 13.1561 13.2391 13.0929 13.2428C12.5758 13.2729 12.0512 13.3177 11.5521 13.4027C10.8548 13.5215 10.1929 13.7375 9.56661 14.051Z" fill="white"/>
<path d="M10.4032 20.3228C10.4027 20.3178 10.4032 20.3129 10.4043 20.3081C10.4169 20.1223 10.4374 19.9375 10.4661 19.7534C10.5775 19.0338 10.7734 18.3419 11.0536 17.6776C11.3278 17.0279 11.6922 16.4106 12.152 15.8822C12.6799 15.2756 13.3392 14.7995 14.0906 14.5274C14.3377 14.438 14.5926 14.3779 14.8555 14.3467C14.9118 14.34 14.9643 14.3378 15.013 14.3399C15.0186 14.34 15.0236 14.3418 15.0283 14.3452C15.0506 14.3612 15.0657 14.3832 15.0734 14.4112C15.0804 14.4356 15.0861 14.4636 15.0906 14.4951C15.1297 14.7672 15.3507 16.2313 15.7538 18.8878C15.7606 18.9329 15.7643 18.9644 15.7648 18.9825C15.7651 18.9956 15.7589 19.0064 15.7462 19.0153C14.9709 19.5508 14.1424 20.0075 13.2606 20.3857C12.9659 20.5119 12.6537 20.627 12.324 20.7307C11.9932 20.8346 11.6631 20.9132 11.3338 20.9666C11.2563 20.979 11.1705 20.99 11.0764 20.9994C10.9781 21.0091 10.8917 21.0159 10.8175 21.0198C10.7189 21.0249 10.5991 21.0227 10.4583 21.013C10.4303 21.0112 10.4125 21.0013 10.4053 20.9837C10.4011 20.9737 10.3982 20.953 10.3965 20.9216C10.386 20.722 10.3883 20.5224 10.4032 20.3228Z" fill="white" fill-opacity="0.396"/>
<path d="M1.9612 19.2815C1.87212 19.2231 1.80017 19.1748 1.74504 19.1368C1.70963 19.1124 1.69492 19.0812 1.70058 19.0435C2.13516 16.1869 2.36377 14.6846 2.38624 14.5369C2.39109 14.5053 2.40321 14.4796 2.42245 14.4597C2.43684 14.4449 2.45721 14.4381 2.48357 14.4392C2.52415 14.4411 2.5526 14.4429 2.56893 14.4447C2.72495 14.4607 2.86108 14.4829 2.977 14.5112C3.99199 14.7584 4.86519 15.3929 5.50913 16.2226C5.70686 16.4774 5.87646 16.7305 6.01808 16.9817C6.36407 17.5956 6.62727 18.2508 6.8077 18.9475C6.84214 19.0802 6.868 19.1847 6.88563 19.2611C6.96743 19.616 7.02321 19.9649 7.05296 20.3078C7.07527 20.5654 7.08125 20.8064 7.07074 21.031C7.06961 21.0544 7.06234 21.0779 7.04859 21.1013C7.04601 21.1058 7.04213 21.1086 7.03695 21.1097C7.02612 21.1121 7.01464 21.1139 7.00236 21.1152C6.92265 21.1233 6.81595 21.1256 6.68224 21.122C6.5951 21.1196 6.45897 21.1078 6.27401 21.0866C6.16359 21.0738 6.05721 21.0575 5.95455 21.0374C5.59822 20.9676 5.25466 20.8758 4.92387 20.7618C4.54346 20.6307 4.1729 20.481 3.8122 20.313C3.17165 20.0145 2.5547 19.6707 1.9612 19.2815Z" fill="white" fill-opacity="0.396"/>
<path d="M10.4038 20.3081C10.4027 20.313 10.4022 20.3178 10.4027 20.3228C10.4019 20.3175 10.4024 20.3126 10.4038 20.3081Z" fill="#D0F9EF" fill-opacity="0.153"/>
</g>
<defs>
<clipPath id="clip0_4163_74">
<rect width="24" height="24" fill="white" transform="translate(0.5)"/>
</clipPath>
</defs>
</svg>
