<svg viewBox="0 0 25 24" fill="none" xmlns="http://www.w3.org/2000/svg">
<path opacity="0.3" fill-rule="evenodd" clip-rule="evenodd" d="M12.4658 2.80096C15.1509 2.80096 17.5685 3.95194 19.2496 5.78787L19.2529 5.79114H19.3226C21.189 5.79767 22.5643 6.34104 23.1109 7.51378C23.7066 8.78998 23.1 10.3374 21.6649 11.9019V11.9999C21.6649 17.0808 17.5467 21.199 12.4658 21.199C10.2412 21.199 8.20172 20.4095 6.6107 19.0952C4.27284 19.2825 2.52409 18.7707 1.88898 17.4096C1.29553 16.1367 1.89661 14.5946 3.32415 13.0345L3.30673 12.8712C3.2806 12.5848 3.26644 12.294 3.26644 12C3.26644 6.91918 7.38465 2.80097 12.4655 2.80097L12.4658 2.80096ZM20.5531 7.61189L20.6402 7.7774C20.8569 8.19226 20.8351 8.6899 20.5879 9.08299L20.5509 9.13853C19.3575 10.8263 16.7484 12.7972 13.4437 14.3379C10.3186 15.7948 7.29797 16.5287 5.23562 16.4601L5.21167 16.4579C4.7086 16.4264 4.26323 16.1302 4.03674 15.6848L4.01496 15.6391C3.844 15.2427 3.70027 14.8322 3.58593 14.4108L3.59682 14.45C2.87051 15.4126 2.59503 16.2837 2.89992 16.9382C3.23857 17.6645 4.23927 18.014 5.65708 18.014H5.7638C7.88606 17.9889 10.9037 17.2049 14.0318 15.7458C17.5186 14.1201 20.2746 12.0608 21.5125 10.3253L21.5267 10.3068C22.1604 9.41064 22.388 8.60159 22.1005 7.98525C21.8316 7.40813 21.1434 7.06839 20.1579 6.95296L20.1329 6.91594C20.2832 7.14134 20.4226 7.37329 20.5532 7.61174L20.5531 7.61189ZM8.86469 8.68118L8.78085 8.87283C8.56306 9.37156 8.16453 9.77009 7.66581 9.98787L7.47416 10.0717C7.40992 10.1 7.35874 10.1512 7.33042 10.2155C7.26836 10.357 7.3326 10.5214 7.47416 10.5835L7.66581 10.6674C8.16453 10.8851 8.56306 11.2837 8.78085 11.7824L8.86469 11.974C8.893 12.0383 8.94418 12.0895 9.00843 12.1178C9.14999 12.1798 9.31441 12.1156 9.37648 11.974L9.46033 11.7824C9.67811 11.2837 10.0766 10.8851 10.5754 10.6674L10.767 10.5835C10.8313 10.5552 10.8824 10.504 10.9107 10.4398C10.9728 10.2982 10.9086 10.1338 10.767 10.0717L10.5754 9.98787C10.0766 9.77009 9.67811 9.37156 9.46033 8.87283L9.37648 8.68118C9.34817 8.61694 9.29699 8.56576 9.23275 8.53745C9.09119 8.47538 8.92676 8.53963 8.86469 8.68118Z" fill="white"/>
<path d="M8.77993 8.87277L8.86377 8.68113C8.92584 8.53957 9.09027 8.47532 9.23183 8.53739C9.29607 8.5657 9.34725 8.61688 9.37556 8.68113L9.45941 8.87277C9.67719 9.3715 10.0757 9.77003 10.5744 9.98781L10.7661 10.0717C10.9077 10.1337 10.9719 10.2982 10.9098 10.4397C10.8815 10.504 10.8303 10.5551 10.7661 10.5834L10.5744 10.6673C10.0757 10.8851 9.67719 11.2836 9.45941 11.7823L9.37556 11.974C9.31349 12.1155 9.14907 12.1798 9.00751 12.1177C8.94326 12.0894 8.89208 12.0382 8.86377 11.974L8.77993 11.7823C8.56214 11.2836 8.16361 10.8851 7.66489 10.6673L7.47324 10.5834C7.33168 10.5214 7.26744 10.357 7.32951 10.2154C7.35782 10.1511 7.409 10.1 7.47324 10.0717L7.66489 9.98781C8.16361 9.77003 8.56214 9.3715 8.77993 8.87277Z" fill="white"/>
<path d="M20.6401 7.7776L20.553 7.61209C20.4223 7.37363 20.2831 7.14154 20.1328 6.91614L20.1578 6.95316C21.1433 7.06859 21.8315 7.40833 22.1004 7.98545C22.3879 8.60179 22.1603 9.41085 21.5266 10.307L21.5124 10.3255C20.2745 12.061 17.5185 14.1203 14.0317 15.746C10.9035 17.2051 7.88595 17.9892 5.76368 18.0142H5.65697C4.23915 18.0142 3.23845 17.6647 2.89981 16.9384C2.59493 16.284 2.87037 15.4129 3.59659 14.4504C3.70914 14.858 3.84922 15.2553 4.01485 15.6393L4.03663 15.685C4.26312 16.1304 4.70849 16.4266 5.21155 16.4581L5.23551 16.4603C7.29786 16.5289 10.3185 15.795 13.4436 14.3381C16.7483 12.7974 19.3573 10.8265 20.5508 9.13873L20.5878 9.0832C20.835 8.6901 20.8568 8.19247 20.6401 7.7776Z" fill="white"/>
<path d="M3.58582 14.411L3.59659 14.4504C3.59297 14.4373 3.58938 14.4241 3.58582 14.411Z" fill="white"/>
</svg>
