<svg viewBox="0 0 22 22" fill="none" xmlns="http://www.w3.org/2000/svg">
<g id="ic_robors">
<path id="Vector" d="M11.8791 2.95366C11.8964 3.00331 11.9063 3.03215 11.909 3.04017C11.9718 3.22756 12.6213 5.1338 13.8575 8.7589C13.8613 8.76989 13.8687 8.79552 13.8799 8.83579C13.8846 8.85312 13.8842 8.87513 13.8788 8.90185C13.872 8.93457 13.8656 8.96313 13.8595 8.98752C13.8299 9.10688 13.765 9.22155 13.6722 9.29915C13.5756 9.37993 13.4619 9.42032 13.3312 9.42032C12.2428 9.42048 11.4718 9.42329 11.018 9.42874C10.8908 9.43027 10.8105 9.43103 10.7773 9.43103C10.3065 9.43159 9.65347 9.43464 8.81834 9.44017C8.77005 9.44049 8.72477 9.43696 8.6825 9.42958C8.63726 9.4218 8.59382 9.40861 8.55219 9.39C8.36761 9.30778 8.25439 9.16495 8.21252 8.96153C8.20153 8.90802 8.19322 8.86751 8.18761 8.84C8.18673 8.83559 8.1854 8.80759 8.18364 8.75601C8.183 8.73508 8.18528 8.71687 8.1905 8.70139C8.19832 8.67805 8.20217 8.65554 8.21071 8.62992C8.29141 8.3859 8.39284 8.08485 8.51501 7.72677C8.60766 7.4554 8.66024 7.30187 8.67275 7.26617C8.68302 7.23697 8.69289 7.20617 8.70235 7.17376C8.70789 7.15459 8.71699 7.1286 8.72967 7.09579C8.7364 7.07823 8.74226 7.0607 8.74723 7.04321C8.75429 7.01883 8.75975 7.00122 8.7636 6.99039C8.80427 6.87488 8.84826 6.74489 8.89559 6.60042C8.89744 6.59473 8.90674 6.56922 8.92351 6.5239C8.93 6.50633 8.93562 6.489 8.94035 6.47192C8.94669 6.44897 8.95198 6.43161 8.95623 6.41982C8.96682 6.39062 8.99273 6.3155 9.03396 6.19445C9.04255 6.16934 9.04704 6.15623 9.04744 6.1551C9.0792 6.06398 9.10981 5.97354 9.13925 5.88378C9.16395 5.80869 9.19038 5.73092 9.21854 5.65047C9.22191 5.64108 9.22841 5.62043 9.23803 5.5885C9.24212 5.57511 9.24682 5.56135 9.25211 5.54723C9.25965 5.52726 9.26462 5.51366 9.26703 5.50644C9.66217 4.33537 10.0778 3.10747 10.5141 1.82274C10.5572 1.69584 10.5848 1.6206 10.5967 1.59701C10.6339 1.52402 10.6878 1.45956 10.7584 1.40365C10.7777 1.38849 10.8038 1.37393 10.8366 1.35998C10.8642 1.34835 10.8928 1.34145 10.9224 1.33928C11.0019 1.33343 11.0645 1.33499 11.1103 1.34397C11.1752 1.35681 11.2348 1.38998 11.2889 1.44348C11.3652 1.51888 11.4205 1.607 11.4546 1.70783C11.6555 2.30095 11.797 2.71622 11.8791 2.95366Z" fill="white" fill-opacity="0.176"/>
<path id="Vector_2" d="M16.4506 11.1437L16.4395 11.122C16.4154 11.0665 16.3884 11.0185 16.3584 10.9779C16.0247 10.5256 15.6909 10.0733 15.357 9.62092C15.3352 9.5914 15.3127 9.56284 15.2896 9.53525L15.2757 9.5166L16.5619 8.71584C16.5689 8.7115 16.5744 8.705 16.5774 8.6973C16.5804 8.68961 16.5809 8.68113 16.5788 8.67313C16.5067 8.40449 16.0852 6.83138 15.3143 3.95381C15.314 3.95236 15.2958 3.88635 15.2599 3.75575C15.2354 3.6668 15.2188 3.59717 15.21 3.54687C15.1985 3.48142 15.2054 3.40978 15.2307 3.33198C15.2591 3.2443 15.3161 3.18771 15.4015 3.1622C15.5117 3.12935 15.6215 3.18855 15.6976 3.26857C15.7179 3.28982 15.746 3.33141 15.7817 3.39334C17.2806 5.99128 18.3075 7.76902 18.8626 8.72655C18.963 8.89966 19.0269 9.01296 19.0544 9.06647C19.0708 9.09831 19.0719 9.12904 19.0578 9.15864C19.0494 9.1762 19.0298 9.19662 18.9989 9.21988C18.6041 9.51708 17.9017 10.0491 16.8917 10.8161C16.7471 10.9259 16.6001 11.0351 16.4506 11.1437Z" fill="white" fill-opacity="0.176"/>
<path id="Vector_3" d="M6.36503 9.4491C6.36286 9.45215 6.36033 9.45468 6.35745 9.45668C6.31999 9.49085 6.28842 9.52527 6.26275 9.55992C5.91165 10.035 5.56091 10.5103 5.21052 10.986C5.20138 10.9983 5.1926 11.0109 5.18417 11.0237C5.18064 11.0268 5.17976 11.0281 5.18153 11.0277C5.18048 11.027 5.17972 11.0259 5.17924 11.0245C5.17852 11.0226 5.17711 11.0216 5.17503 11.0215C5.16139 11.0206 5.14755 11.0148 5.13352 11.004C5.03742 10.9304 4.92014 10.841 4.78169 10.7358C4.58709 10.5879 3.92435 10.0866 2.79347 9.2318C2.76082 9.20709 2.74518 9.17597 2.74654 9.13843C2.74742 9.11637 2.75877 9.08645 2.78059 9.04866C3.85989 7.17924 4.93911 5.30974 6.01825 3.44015C6.06775 3.35448 6.10433 3.30162 6.12799 3.28157C6.17612 3.24066 6.23813 3.21459 6.31401 3.20335C6.35299 3.19758 6.39326 3.20211 6.43481 3.21695C6.53468 3.25281 6.59472 3.34919 6.60459 3.45291C6.60708 3.47946 6.60178 3.53509 6.58871 3.61979C6.58061 3.67242 6.55261 3.78568 6.50472 3.95959C6.47312 4.07438 6.45198 4.15178 6.44131 4.19181C5.97422 5.93538 5.57182 7.43761 5.23411 8.69852C5.23206 8.70614 5.23251 8.7142 5.23539 8.72153C5.23827 8.72885 5.24343 8.73505 5.25011 8.73919C5.51137 8.90195 5.88016 9.13205 6.35648 9.42949C6.36049 9.43197 6.36258 9.43378 6.36274 9.4349C6.36314 9.43779 6.36214 9.44012 6.35973 9.44188C6.35604 9.44469 6.3564 9.44669 6.36082 9.4479C6.3621 9.4483 6.3635 9.4487 6.36503 9.4491Z" fill="white" fill-opacity="0.176"/>
<path id="Vector_4" d="M7.39695 10.095C7.39375 10.0968 7.3921 10.1001 7.39202 10.1049C7.39387 10.0903 7.38837 10.0787 7.37554 10.0702C7.3015 10.0214 7.22578 9.97286 7.14837 9.92449C6.7201 9.65697 6.48294 9.50857 6.43689 9.4793C6.43096 9.47553 6.41544 9.46558 6.39033 9.44946C6.38584 9.44657 6.38118 9.44621 6.37637 9.44837L6.35736 9.45668C6.36025 9.45467 6.36278 9.45214 6.36494 9.44909C6.51599 9.31963 6.68729 9.26777 6.87884 9.29352C6.94759 9.30274 7.01445 9.32448 7.07942 9.35873C7.14014 9.39082 7.19517 9.43293 7.24451 9.48507C7.4002 9.64975 7.45102 9.85306 7.39695 10.095Z" fill="white" fill-opacity="0.522"/>
<path id="Vector_5" d="M15.2757 9.51652L15.2896 9.53517L15.2642 9.52723C15.2604 9.52603 15.2567 9.52651 15.2533 9.52867L14.2298 10.1666C14.2267 10.1686 14.2237 10.1684 14.2208 10.1661C14.2198 10.1654 14.2189 10.1646 14.218 10.1637C14.2146 10.1602 14.2123 10.1609 14.2113 10.1657C14.2105 10.1698 14.2087 10.1725 14.206 10.174C14.1508 10.0402 14.1383 9.90978 14.1686 9.78256C14.236 9.49919 14.4728 9.29717 14.7662 9.28887C14.8928 9.28518 15.0095 9.3161 15.1164 9.38164C15.1551 9.40538 15.1783 9.4209 15.1858 9.4282L15.2757 9.51652Z" fill="white" fill-opacity="0.522"/>
<path id="Vector_6" d="M7.39196 10.1048C7.36717 10.1835 7.32983 10.2567 7.27993 10.3244C6.93677 10.7901 6.59313 11.2556 6.249 11.7208C6.2344 11.7405 6.21892 11.7589 6.20256 11.7762L6.17633 11.7956C6.17248 11.7984 6.16991 11.7974 6.16863 11.7928C6.16646 11.785 6.16185 11.7808 6.15479 11.78C6.15054 11.7796 6.14705 11.7779 6.14432 11.7747C6.1363 11.7657 6.12427 11.7555 6.10822 11.7442C6.08793 11.7298 6.07498 11.7203 6.06936 11.7155C5.9877 11.6466 5.8902 11.57 5.77685 11.4858C5.68814 11.42 5.62408 11.3719 5.5847 11.3416C5.48306 11.2634 5.40967 11.2088 5.36451 11.1779C5.29015 11.1271 5.23263 11.084 5.19196 11.0488C5.18747 11.0449 5.18502 11.0399 5.18462 11.0339L5.18402 11.0236C5.19244 11.0108 5.20123 10.9983 5.21037 10.9859C5.56075 10.5102 5.9115 10.0349 6.2626 9.55983C6.28827 9.52518 6.31983 9.49077 6.35729 9.45659L6.37631 9.44829C6.38112 9.44613 6.38577 9.44649 6.39026 9.44937C6.41537 9.4655 6.43089 9.47544 6.43683 9.47921C6.48287 9.50849 6.72003 9.65689 7.1483 9.92441C7.22571 9.97278 7.30143 10.0214 7.37547 10.0701C7.38831 10.0786 7.3938 10.0902 7.39196 10.1048Z" fill="white" fill-opacity="0.604"/>
<path id="Vector_7" d="M15.2897 9.5352C15.3128 9.56279 15.3352 9.59135 15.3571 9.62087C15.6909 10.0732 16.0247 10.5255 16.3585 10.9779C16.3884 11.0185 16.4155 11.0665 16.4396 11.1219L16.4419 11.1558C16.4421 11.1598 16.4403 11.1621 16.4364 11.1627C16.4255 11.1644 16.4158 11.1689 16.4071 11.1762C16.3819 11.1977 16.3119 11.252 16.1969 11.3391C15.9678 11.5128 15.7387 11.6867 15.5096 11.8607C15.5066 11.863 15.5045 11.8661 15.5035 11.8698L15.4971 11.8935L15.4787 11.8827C15.4156 11.8291 15.369 11.7821 15.339 11.7416C14.9926 11.273 14.6464 10.8043 14.3004 10.3353C14.2833 10.3122 14.2681 10.2892 14.2547 10.2662C14.2405 10.2418 14.2268 10.2177 14.2135 10.194L14.2061 10.174C14.2088 10.1726 14.2105 10.1698 14.2113 10.1657C14.2124 10.1609 14.2146 10.1602 14.2181 10.1638C14.219 10.1646 14.2199 10.1655 14.2209 10.1662C14.2237 10.1684 14.2268 10.1686 14.2299 10.1667L15.2533 9.5287C15.2568 9.52653 15.2604 9.52605 15.2643 9.52726L15.2897 9.5352Z" fill="white" fill-opacity="0.604"/>
<path id="Vector_8" d="M6.18726 11.7962L6.20254 11.7762C6.2189 11.759 6.23438 11.7406 6.24898 11.7209C6.59311 11.2556 6.93675 10.7902 7.27991 10.3244C7.32981 10.2567 7.36715 10.1835 7.39193 10.1048C7.39201 10.1001 7.39366 10.0968 7.39687 10.095C7.4036 10.0994 7.4099 10.0999 7.41576 10.0964C7.41921 10.0945 7.42262 10.0946 7.42598 10.0967C7.54021 10.168 7.97153 10.4373 8.71994 10.9044C8.74088 10.9175 8.75556 10.9399 8.76398 10.9714C8.78436 11.0485 8.77064 11.1164 8.72283 11.1752C8.62176 11.2997 8.54323 11.4325 8.48724 11.5736C8.40662 11.7769 8.35829 11.9711 8.34225 12.1563C8.33022 12.295 8.32412 12.3964 8.32396 12.4604C8.3238 12.532 8.32945 12.6248 8.34092 12.7387C8.3601 12.9289 8.40494 13.1146 8.47545 13.2958C8.50468 13.3711 8.49458 13.4544 8.39194 13.4528C8.38007 13.4527 8.35965 13.4416 8.3307 13.4196C7.69723 12.9396 7.06333 12.4602 6.42899 11.9814C6.42826 11.9808 6.39277 11.9549 6.3225 11.9036C6.27621 11.8698 6.23113 11.834 6.18726 11.7962Z" fill="white" fill-opacity="0.176"/>
<path id="Vector_9" d="M14.2136 10.194C14.2268 10.2177 14.2405 10.2418 14.2547 10.2662C14.2681 10.2892 14.2833 10.3122 14.3004 10.3353C14.6464 10.8043 14.9926 11.273 15.3391 11.7416C15.3691 11.7821 15.4156 11.8291 15.4788 11.8827C14.8224 12.3766 14.1678 12.8727 13.5148 13.371C13.4892 13.3906 13.4601 13.4034 13.4276 13.4092C13.404 13.4134 13.3817 13.4069 13.3606 13.3896C13.3268 13.3623 13.3176 13.3272 13.333 13.2843C13.3827 13.1457 13.4178 13.0259 13.4383 12.9251C13.4596 12.8207 13.4756 12.6944 13.4863 12.5463C13.492 12.4671 13.4925 12.387 13.4876 12.3059C13.474 12.0775 13.4343 11.861 13.3685 11.6565C13.3612 11.6339 13.3414 11.5849 13.3092 11.5097C13.2859 11.4554 13.2627 11.408 13.2394 11.3675C13.2021 11.3023 13.162 11.2421 13.1191 11.1869C13.0974 11.1588 13.0818 11.1373 13.0725 11.1225C13.0325 11.0584 13.0332 10.9826 13.0686 10.9148C13.0778 10.8971 13.0947 10.8798 13.1193 10.8631C13.1567 10.8376 13.177 10.8239 13.1803 10.8218C13.3478 10.7186 13.6667 10.52 14.1369 10.226C14.1372 10.2257 14.145 10.2198 14.1604 10.2082C14.1756 10.1966 14.1933 10.1919 14.2136 10.194Z" fill="white" fill-opacity="0.176"/>
<path id="Vector_10" d="M10.9547 14.2986C11.9202 14.2986 12.7028 13.5159 12.7028 12.5504C12.7028 11.5849 11.9202 10.8022 10.9547 10.8022C9.98917 10.8022 9.20648 11.5849 9.20648 12.5504C9.20648 13.5159 9.98917 14.2986 10.9547 14.2986Z" fill="white"/>
<path id="Vector_11" d="M5.18407 11.0236L5.18467 11.0339C5.18508 11.0399 5.18752 11.0449 5.19201 11.0488C5.23268 11.084 5.2902 11.1271 5.36456 11.1779C5.40972 11.2088 5.48312 11.2634 5.58475 11.3416C5.62414 11.3719 5.68819 11.42 5.77691 11.4858C5.89025 11.57 5.98775 11.6466 6.06941 11.7155C6.07503 11.7203 6.08798 11.7298 6.10828 11.7442C6.12432 11.7555 6.13635 11.7657 6.14437 11.7747C6.1471 11.7779 6.15059 11.7796 6.15484 11.78C6.1619 11.7808 6.16651 11.785 6.16868 11.7928C6.16996 11.7974 6.17253 11.7984 6.17638 11.7956L6.20261 11.7762L6.18733 11.7962C6.14409 11.8428 6.10066 11.8799 6.05702 11.9076C5.86065 12.0322 5.6194 12.0467 5.41281 11.9371C5.35746 11.9077 5.3072 11.8704 5.26204 11.8252C5.14027 11.7031 5.07903 11.5502 5.07831 11.3666L5.07915 11.3518C5.08517 11.2356 5.11926 11.1276 5.18143 11.0277C5.17966 11.0281 5.18054 11.0267 5.18407 11.0236Z" fill="white" fill-opacity="0.522"/>
<path id="Vector_12" d="M16.4508 11.1437C16.5177 11.325 16.5098 11.498 16.4271 11.6628C16.39 11.7366 16.3418 11.8001 16.2824 11.8533C16.1818 11.9436 16.0624 11.9955 15.9243 12.009C15.7714 12.024 15.6291 11.9855 15.4972 11.8936L15.5036 11.8699C15.5046 11.8661 15.5067 11.8631 15.5097 11.8607C15.7387 11.6867 15.9678 11.5129 16.197 11.3391C16.3119 11.252 16.382 11.1977 16.4072 11.1762C16.4159 11.1689 16.4256 11.1644 16.4364 11.1627C16.4404 11.1622 16.4422 11.1599 16.442 11.1559L16.4397 11.1219L16.4508 11.1437Z" fill="white" fill-opacity="0.522"/>
<path id="Vector_13" d="M14.1645 16.51C14.1659 16.5103 14.1668 16.5116 14.1673 16.5138C14.1943 16.6422 14.2113 16.7404 14.2181 16.8085C14.2235 16.863 14.2289 16.9112 14.2341 16.9531C14.2399 16.9995 14.2436 17.0477 14.2453 17.0979C14.25 17.236 14.2502 17.3705 14.2457 17.5014C14.2443 17.5459 14.2406 17.5936 14.2347 17.6445C14.2242 17.7347 14.2188 17.7821 14.2183 17.7866C14.1914 18.0371 14.1302 18.2955 14.0346 18.5617C13.9358 18.8365 13.797 19.0857 13.618 19.3092C13.537 19.4104 13.4405 19.5055 13.3286 19.5943C13.1908 19.7039 13.0381 19.7818 12.8708 19.8279C12.8325 19.8385 12.7944 19.8478 12.7565 19.8559C12.7231 19.8631 12.6841 19.8668 12.6395 19.8669C12.2319 19.8673 11.1552 19.8709 9.40935 19.8777C9.30868 19.8781 9.23251 19.8734 9.18085 19.8637C9.04385 19.838 8.91362 19.7899 8.79016 19.7196C8.65348 19.6417 8.53179 19.5457 8.4251 19.4315C8.28497 19.2817 8.16749 19.1156 8.07268 18.9332C7.97088 18.7374 7.89043 18.5328 7.83131 18.3194C7.82802 18.3074 7.82465 18.2923 7.8212 18.274C7.82112 18.2735 7.81719 18.2585 7.80941 18.2289C7.76417 18.0572 7.73465 17.8826 7.72085 17.705C7.71042 17.5708 7.70469 17.4908 7.70364 17.465C7.69987 17.374 7.69963 17.2854 7.70292 17.1991C7.70637 17.1102 7.71359 17.0079 7.72458 16.8922C7.72723 16.8644 7.73104 16.8349 7.73601 16.8037C7.74624 16.74 7.74756 16.6991 7.76092 16.645C7.76244 16.639 7.76677 16.6154 7.77391 16.5745C7.78643 16.5021 7.81013 16.4048 7.84502 16.2827C7.88954 16.127 7.95319 15.9632 8.03598 15.7914C8.12429 15.6079 8.23351 15.4402 8.36362 15.2882C8.45201 15.1849 8.55305 15.0924 8.66671 15.0107C8.82345 14.898 8.996 14.8241 9.18434 14.789C9.2068 14.7848 9.24731 14.7806 9.30587 14.7763C9.34542 14.7735 9.38609 14.772 9.42788 14.7719C10.8795 14.7676 11.7615 14.7647 12.0739 14.763C12.332 14.7617 12.5161 14.7567 12.6755 14.7668C12.709 14.7689 12.739 14.7723 12.7655 14.7771C12.9745 14.8144 13.1632 14.9001 13.3315 15.0341C13.3549 15.0526 13.376 15.0694 13.3949 15.0845C13.4196 15.1043 13.4404 15.1223 13.4571 15.1384C13.5886 15.2655 13.7003 15.4041 13.7922 15.554C13.9465 15.8057 14.0625 16.087 14.1402 16.3978C14.1564 16.4625 14.1639 16.4989 14.1626 16.5072C14.1624 16.5087 14.1631 16.5096 14.1645 16.51Z" fill="white" fill-opacity="0.176"/>
<path id="Vector_14" d="M10.9597 18.406C11.4848 18.406 11.9104 17.9804 11.9104 17.4553C11.9104 16.9303 11.4848 16.5046 10.9597 16.5046C10.4347 16.5046 10.009 16.9303 10.009 17.4553C10.009 17.9804 10.4347 18.406 10.9597 18.406Z" fill="white"/>
</g>
</svg>
